<svg xmlns="http://www.w3.org/2000/svg" xmlns:xlink="http://www.w3.org/1999/xlink" width="3283" zoomAndPan="magnify" viewBox="0 0 2462.25 3163.499872" height="4218" preserveAspectRatio="xMidYMid meet" version="1.2"><defs/><g id="d159981038"><g style="fill:#019d52;fill-opacity:1;"><g transform="translate(125.002476, 1799.118457)"><path style="stroke:none" d="M 204.1875 -226.84375 L 364.4375 -226.84375 L 364.4375 -17.40625 C 338.46875 -8.9375 314.015625 -3 291.078125 0.40625 C 268.148438 3.820312 244.710938 5.53125 220.765625 5.53125 C 159.796875 5.53125 113.238281 -12.378906 81.09375 -48.203125 C 48.945312 -84.035156 32.875 -135.476562 32.875 -202.53125 C 32.875 -267.738281 51.523438 -318.578125 88.828125 -355.046875 C 126.128906 -391.515625 177.84375 -409.75 243.96875 -409.75 C 285.414062 -409.75 325.390625 -401.460938 363.890625 -384.890625 L 335.421875 -316.359375 C 305.953125 -331.097656 275.285156 -338.46875 243.421875 -338.46875 C 206.398438 -338.46875 176.742188 -326.03125 154.453125 -301.15625 C 132.160156 -276.289062 121.015625 -242.863281 121.015625 -200.875 C 121.015625 -157.03125 129.992188 -123.550781 147.953125 -100.4375 C 165.910156 -77.320312 192.019531 -65.765625 226.28125 -65.765625 C 244.15625 -65.765625 262.300781 -67.601562 280.71875 -71.28125 L 280.71875 -155.5625 L 204.1875 -155.5625 Z M 204.1875 -226.84375 "/></g><g transform="translate(534.749733, 1799.118457)"><path style="stroke:none" d="M 240.375 0 L 224.078125 -42 L 221.875 -42 C 207.6875 -24.132812 193.085938 -11.742188 178.078125 -4.828125 C 163.066406 2.078125 143.492188 5.53125 119.359375 5.53125 C 89.703125 5.53125 66.351562 -2.941406 49.3125 -19.890625 C 32.28125 -36.835938 23.765625 -60.96875 23.765625 -92.28125 C 23.765625 -125.070312 35.226562 -149.25 58.15625 -164.8125 C 81.09375 -180.375 115.675781 -188.984375 161.90625 -190.640625 L 215.515625 -192.296875 L 215.515625 -205.84375 C 215.515625 -237.15625 199.488281 -252.8125 167.4375 -252.8125 C 142.75 -252.8125 113.738281 -245.351562 80.40625 -230.4375 L 52.5 -287.34375 C 88.050781 -305.945312 127.46875 -315.25 170.75 -315.25 C 212.195312 -315.25 243.972656 -306.222656 266.078125 -288.171875 C 288.179688 -270.128906 299.234375 -242.6875 299.234375 -205.84375 L 299.234375 0 Z M 215.515625 -143.125 L 182.90625 -142.015625 C 158.40625 -141.273438 140.171875 -136.851562 128.203125 -128.75 C 116.234375 -120.644531 110.25 -108.304688 110.25 -91.734375 C 110.25 -67.972656 123.878906 -56.09375 151.140625 -56.09375 C 170.660156 -56.09375 186.269531 -61.707031 197.96875 -72.9375 C 209.664062 -84.175781 215.515625 -99.097656 215.515625 -117.703125 Z M 215.515625 -143.125 "/></g><g transform="translate(876.528129, 1799.118457)"><path style="stroke:none" d="M 174.34375 -61.609375 C 189.082031 -61.609375 206.765625 -64.832031 227.390625 -71.28125 L 227.390625 -8.5625 C 206.390625 0.832031 180.601562 5.53125 150.03125 5.53125 C 116.320312 5.53125 91.773438 -2.988281 76.390625 -20.03125 C 61.015625 -37.070312 53.328125 -62.628906 53.328125 -96.703125 L 53.328125 -245.625 L 12.984375 -245.625 L 12.984375 -281.265625 L 59.40625 -309.453125 L 83.71875 -374.65625 L 137.59375 -374.65625 L 137.59375 -308.90625 L 224.078125 -308.90625 L 224.078125 -245.625 L 137.59375 -245.625 L 137.59375 -96.703125 C 137.59375 -84.734375 140.953125 -75.890625 147.671875 -70.171875 C 154.398438 -64.460938 163.289062 -61.609375 174.34375 -61.609375 Z M 174.34375 -61.609375 "/></g><g transform="translate(1122.155447, 1799.118457)"><path style="stroke:none" d="M 240.375 0 L 224.078125 -42 L 221.875 -42 C 207.6875 -24.132812 193.085938 -11.742188 178.078125 -4.828125 C 163.066406 2.078125 143.492188 5.53125 119.359375 5.53125 C 89.703125 5.53125 66.351562 -2.941406 49.3125 -19.890625 C 32.28125 -36.835938 23.765625 -60.96875 23.765625 -92.28125 C 23.765625 -125.070312 35.226562 -149.25 58.15625 -164.8125 C 81.09375 -180.375 115.675781 -188.984375 161.90625 -190.640625 L 215.515625 -192.296875 L 215.515625 -205.84375 C 215.515625 -237.15625 199.488281 -252.8125 167.4375 -252.8125 C 142.75 -252.8125 113.738281 -245.351562 80.40625 -230.4375 L 52.5 -287.34375 C 88.050781 -305.945312 127.46875 -315.25 170.75 -315.25 C 212.195312 -315.25 243.972656 -306.222656 266.078125 -288.171875 C 288.179688 -270.128906 299.234375 -242.6875 299.234375 -205.84375 L 299.234375 0 Z M 215.515625 -143.125 L 182.90625 -142.015625 C 158.40625 -141.273438 140.171875 -136.851562 128.203125 -128.75 C 116.234375 -120.644531 110.25 -108.304688 110.25 -91.734375 C 110.25 -67.972656 123.878906 -56.09375 151.140625 -56.09375 C 170.660156 -56.09375 186.269531 -61.707031 197.96875 -72.9375 C 209.664062 -84.175781 215.515625 -99.097656 215.515625 -117.703125 Z M 215.515625 -143.125 "/></g></g><g style="fill:#019d52;fill-opacity:1;"><g transform="translate(1463.93383, 1799.118457)"><path style="stroke:none" d="M 125.15625 -167.984375 L 161.90625 -214.953125 L 248.390625 -308.90625 L 343.4375 -308.90625 L 220.765625 -174.890625 L 350.90625 0 L 253.640625 0 L 164.671875 -125.15625 L 128.484375 -96.15625 L 128.484375 0 L 44.203125 0 L 44.203125 -429.921875 L 128.484375 -429.921875 L 128.484375 -238.171875 L 124.0625 -167.984375 Z M 125.15625 -167.984375 "/></g></g><g style="fill:#019d52;fill-opacity:1;"><g transform="translate(1814.830021, 1799.118457)"><path style="stroke:none" d=""/></g></g><g style="fill:#019d52;fill-opacity:1;"><g transform="translate(1961.819555, 1799.118457)"><path style="stroke:none" d="M 50.84375 0 L 50.84375 -403.953125 L 136.484375 -403.953125 L 136.484375 0 Z M 50.84375 0 "/></g></g><g style="fill:#019d52;fill-opacity:1;"><g transform="translate(2149.148389, 1799.118457)"><path style="stroke:none" d="M 50.84375 0 L 50.84375 -403.953125 L 136.484375 -403.953125 L 136.484375 0 Z M 50.84375 0 "/></g></g></g></svg>